# xmcd
#
# Track frame offsets:
#	151
#	18840
#	36924
#	47001
#	64875
#	78311
#	92256
#	107715
#	127710
#	143413
#	155976
#	168823
#
# Disc length: 2378 seconds
#
# Revision: 0
# Processed by: cddbd v1.5.2PL0 Copyright (c) Steve Scherf et al.
# Submitted via: EasyCDDAExtractor 16.0.6.1
#
DISCID=8909480c
DTITLE=Χορωδία - Τα τραγούδια του ΕΔΕΣ
DYEAR=2012
DGENRE=Πατριωτική
TTITLE0=Ο Ζέρβας ξαναγύρισε
TTITLE1=Στον Γοργοπόταμο
TTITLE2=Είμαστε του Ζέρβα αντάρτες
TTITLE3=Ελληνική Δύναμη
TTITLE4=Μισεύω
TTITLE5=Μέσ' στου πολέμου
TTITLE6=Γειά σου Ζέρβα μου
TTITLE7=Τα ντουφέκια μας βροντούνε
TTITLE8=Αγόρω μου
TTITLE9=Εμπρός αδέλφια
TTITLE10=Ο αντάρτης
TTITLE11=Ελλάδα μας, Ελλάδα μας
EXTD=
EXTT0=
EXTT1=
EXTT2=
EXTT3=
EXTT4=
EXTT5=
EXTT6=
EXTT7=
EXTT8=
EXTT9=
EXTT10=
EXTT11=
PLAYORDER=
